<svg width="19" height="19" viewBox="0 0 19 19" fill="none" xmlns="http://www.w3.org/2000/svg">
<path fill-rule="evenodd" clip-rule="evenodd" d="M9.11596 18.4766C14.0846 18.4766 18.1124 14.4488 18.1124 9.48013C18.1124 4.51151 14.0846 0.483643 9.11596 0.483643C4.14734 0.483643 0.119476 4.51151 0.119476 9.48013C0.119476 14.4488 4.14734 18.4766 9.11596 18.4766ZM9.54048 8.16908C10.0452 8.37742 10.5508 8.58615 11.0295 8.85075C12.7517 9.80273 13.2149 11.9653 11.9986 13.443C11.561 13.9773 10.9926 14.3353 10.3248 14.5172C10.0349 14.5968 9.90421 14.7502 9.91842 15.0515C9.92573 15.2416 9.92246 15.4328 9.9192 15.6238C9.91739 15.7297 9.91558 15.8355 9.91558 15.9409C9.91558 16.2052 9.78202 16.3473 9.52058 16.353C9.2023 16.3615 8.88118 16.3615 8.5629 16.3558C8.28157 16.3501 8.15085 16.191 8.14801 15.9182C8.14659 15.8102 8.14588 15.7015 8.14517 15.5928C8.14446 15.4841 8.14375 15.3754 8.14232 15.2674C8.13664 14.79 8.12243 14.7701 7.66207 14.6962C7.07382 14.6025 6.49695 14.4689 5.95701 14.2075C5.53359 14 5.48812 13.8949 5.61032 13.4516L5.61033 13.4515C5.70126 13.1219 5.7922 12.7922 5.8945 12.4655C6.01385 12.0875 6.11615 12.0392 6.46569 12.2211C7.06246 12.5308 7.69617 12.7042 8.3583 12.7866C8.7874 12.8406 9.20514 12.7979 9.60015 12.6246C10.339 12.3006 10.4527 11.4453 9.83033 10.9309C9.62004 10.7547 9.37849 10.6268 9.12557 10.516C8.91955 10.4248 8.71066 10.3407 8.50191 10.2567C8.05415 10.0764 7.60704 9.89646 7.19034 9.64644C6.19856 9.05251 5.56769 8.23693 5.64158 7.02918C5.72399 5.66514 6.49695 4.81261 7.74732 4.35793C7.75633 4.35466 7.76518 4.35145 7.77389 4.3483C8.26462 4.1705 8.26741 4.16949 8.2702 3.63896C8.27142 3.55973 8.27107 3.48102 8.27072 3.40261C8.27026 3.29822 8.2698 3.19436 8.27304 3.0905C8.28441 2.68413 8.35261 2.61309 8.75614 2.60172C8.8395 2.59983 8.92286 2.60046 9.00622 2.60109C9.0479 2.60141 9.08958 2.60172 9.13126 2.60172C9.56368 2.60172 9.77965 2.60172 9.88787 2.70971C9.99586 2.81746 9.99657 3.03272 9.99799 3.46277V3.46281C10.0008 4.07375 10.0008 4.0766 10.609 4.17037C11.075 4.24426 11.5183 4.38066 11.9503 4.57106C12.1861 4.6762 12.2771 4.84103 12.2032 5.0911C12.1631 5.22566 12.1246 5.3606 12.086 5.4955C12.0179 5.73381 11.9498 5.97202 11.8736 6.20791C11.7599 6.55745 11.6491 6.6086 11.3137 6.44662C10.6402 6.12266 9.93263 5.98625 9.18809 6.02604C8.99485 6.03741 8.80445 6.06298 8.62258 6.14255C7.98034 6.42388 7.8752 7.13432 8.42366 7.57195C8.70215 7.79361 9.01758 7.95275 9.34723 8.08915C9.41159 8.11587 9.47603 8.14247 9.54048 8.16908Z" fill="url(#paint0_linear)"/>
<defs>
<linearGradient id="paint0_linear" x1="9.11596" y1="0.483643" x2="9.11596" y2="18.4766" gradientUnits="userSpaceOnUse">
<stop stop-color="#FF7E00"/>
<stop offset="1" stop-color="#C65300"/>
</linearGradient>
</defs>
</svg>
