<svg width="19" height="19" viewBox="0 0 19 19" fill="none" xmlns="http://www.w3.org/2000/svg">
<path fill-rule="evenodd" clip-rule="evenodd" d="M9.11596 18.4347C14.0846 18.4347 18.1124 14.4069 18.1124 9.43826C18.1124 4.46964 14.0846 0.441772 9.11596 0.441772C4.14734 0.441772 0.119476 4.46964 0.119476 9.43826C0.119476 14.4069 4.14734 18.4347 9.11596 18.4347ZM12.5689 13.043C12.714 13.3573 12.8469 13.6764 12.9775 13.9956C13.096 14.2832 13.0186 14.5153 12.7188 14.6531C12.4094 14.7958 12.0854 14.9118 11.759 15.0013C10.5043 15.347 9.24953 15.3591 8.00445 14.9553C6.49827 14.467 5.49738 13.4419 4.90023 12.001C4.81697 11.7973 4.75448 11.5845 4.69184 11.3712C4.66898 11.2934 4.64611 11.2155 4.6222 11.1379H3.4424C3.24416 11.1379 3.08459 10.9784 3.08459 10.7801V9.98472C3.08459 9.78648 3.24416 9.62691 3.4424 9.62691H4.42154V8.97899H3.4424C3.24416 8.97899 3.08459 8.81943 3.08459 8.62118V7.82579C3.08459 7.62754 3.24416 7.46798 3.4424 7.46798H4.68506L4.72616 7.34468C5.05979 6.27851 5.63518 5.3719 6.52245 4.6853C7.22598 4.13891 8.04071 3.83913 8.91348 3.69891C10.1537 3.50066 11.3553 3.6699 12.5206 4.12441C12.5955 4.15342 12.668 4.18727 12.7382 4.22837C13.0186 4.39276 13.0911 4.6031 12.9678 4.90046C12.8373 5.21717 12.7067 5.53146 12.5641 5.84092C12.4408 6.10927 12.274 6.19389 11.9863 6.12862C11.8142 6.08955 11.6435 6.0445 11.473 5.99949C11.253 5.94143 11.0333 5.88344 10.8113 5.8385C9.97965 5.66685 9.15524 5.6596 8.34775 5.97872C7.6539 6.25433 7.23081 6.78379 6.9407 7.4438C6.93586 7.44864 6.93586 7.45831 6.93586 7.46798H10.4119C10.6101 7.46798 10.7697 7.62754 10.7697 7.82579V8.62118C10.7697 8.81943 10.6101 8.97899 10.4119 8.97899H6.58772C6.58612 9.12013 6.58664 9.26126 6.58718 9.40522C6.58745 9.47827 6.58772 9.55204 6.58772 9.62691H10.4119C10.6101 9.62691 10.7697 9.78648 10.7697 9.98472V10.7801C10.7697 10.9784 10.6101 11.1379 10.4119 11.1379H6.82949C7.13411 12.0083 7.62972 12.6828 8.5605 12.9753C9.30271 13.2098 10.057 13.1953 10.8089 13.0382C11.0298 12.9929 11.2484 12.9351 11.4673 12.8773C11.6341 12.8333 11.801 12.7892 11.9693 12.7505C12.2764 12.6804 12.4408 12.7626 12.5689 13.043Z" fill="url(#paint0_linear)"/>
<defs>
<linearGradient id="paint0_linear" x1="9.11596" y1="0.441772" x2="9.11596" y2="18.4347" gradientUnits="userSpaceOnUse">
<stop stop-color="#FF7E00"/>
<stop offset="1" stop-color="#C65300"/>
</linearGradient>
</defs>
</svg>
