<svg width="19" height="19" viewBox="0 0 19 19" fill="none" xmlns="http://www.w3.org/2000/svg">
<path fill-rule="evenodd" clip-rule="evenodd" d="M9.11596 18.79C14.0846 18.79 18.1124 14.7621 18.1124 9.79348C18.1124 4.82486 14.0846 0.796997 9.11596 0.796997C4.14734 0.796997 0.119476 4.82486 0.119476 9.79348C0.119476 14.7621 4.14734 18.79 9.11596 18.79ZM5.94086 13.7624H4.08861C4.01136 13.7624 3.94809 13.7378 3.89838 13.688C3.84865 13.6383 3.82394 13.575 3.82394 13.4978V12.4393C3.82394 12.3624 3.84881 12.2988 3.89838 12.2494C3.94809 12.1996 4.01138 12.1748 4.08861 12.1748H5.94086V11.199H4.08861C4.01124 11.199 3.94812 11.1744 3.89838 11.1247C3.84865 11.075 3.82394 11.0117 3.82394 10.9344V9.7025C3.82394 9.63086 3.84881 9.56885 3.89838 9.51647C3.94809 9.46412 4.01138 9.43799 4.08861 9.43799H5.94073V4.23677C5.94073 4.15995 5.96558 4.09627 6.01517 4.04654C6.06488 3.99708 6.12815 3.97223 6.2054 3.97223H10.6622C11.7646 3.97223 12.6645 4.30884 13.3619 4.98097C14.0592 5.65376 14.408 6.52199 14.408 7.58562C14.408 8.64996 14.0592 9.51816 13.3619 10.1903C12.6644 10.8631 11.7646 11.199 10.6622 11.199H7.85076V12.1748H12.0266C12.1037 12.1748 12.1673 12.1997 12.2169 12.2494C12.2666 12.2988 12.2913 12.3625 12.2913 12.4393V13.4978C12.2913 13.575 12.2666 13.6383 12.2169 13.688C12.1671 13.7378 12.1037 13.7624 12.0266 13.7624H7.8509V15.3502C7.8509 15.4274 7.82479 15.4907 7.77241 15.5401C7.72003 15.5899 7.65802 15.6147 7.58636 15.6147H6.20554C6.12831 15.6147 6.0649 15.5899 6.01531 15.5401C5.96558 15.4907 5.94086 15.4274 5.94086 15.3502V13.7624ZM10.4968 5.73367H7.85076V9.43814H10.4968C11.081 9.43814 11.5523 9.26732 11.9107 8.92525C12.269 8.58387 12.4482 8.13706 12.4482 7.58576C12.4482 7.03472 12.269 6.58806 11.9107 6.24627C11.5523 5.90449 11.0811 5.73367 10.4968 5.73367Z" fill="url(#paint0_linear)"/>
<defs>
<linearGradient id="paint0_linear" x1="9.11596" y1="0.796997" x2="9.11596" y2="18.79" gradientUnits="userSpaceOnUse">
<stop stop-color="#FF7E00"/>
<stop offset="1" stop-color="#C65300"/>
</linearGradient>
</defs>
</svg>
