<svg width="31" height="31" viewBox="0 0 31 31" fill="none" xmlns="http://www.w3.org/2000/svg">
<path d="M29.5816 19.5769C27.5759 27.6126 19.4277 32.503 11.3818 30.4992C3.33918 28.4957 -1.55687 20.3564 0.449791 12.3212C2.45458 4.28458 10.6028 -0.606307 18.6463 1.39711C26.6917 3.40053 31.5873 11.5408 29.5816 19.5769Z" fill="url(#paint0_linear)"/>
<path d="M19.7453 10.492C19.005 8.61416 17.1503 8.44478 14.9904 8.86388L14.2214 6.18536L12.5892 6.65304L13.338 9.26094C12.9089 9.3839 12.4727 9.518 12.0394 9.6515L11.286 7.02622L9.6546 7.49344L10.4227 10.1714C10.0714 10.2798 9.72623 10.3858 9.38789 10.4829L9.38529 10.4747L7.13376 11.1187L7.63408 12.8599C7.63408 12.8599 8.83286 12.4917 8.81919 12.5196C9.48041 12.3305 9.80566 12.6522 9.96322 12.9651L10.8394 16.0165C10.8851 16.0037 10.9451 15.9885 11.0151 15.9784C10.9608 15.9941 10.9025 16.0104 10.8428 16.0281L12.0695 20.3029C12.1002 20.519 12.073 20.8855 11.6113 21.0186C11.6375 21.0311 10.4247 21.3581 10.4247 21.3581L10.6593 23.3981L12.7835 22.7896C13.1789 22.6769 13.5698 22.5722 13.9523 22.4652L14.7307 25.1741L16.3613 24.7073L15.5918 22.0269C16.0421 21.908 16.4764 21.7874 16.8993 21.6659L17.6645 24.3341L19.2967 23.8664L18.5209 21.1621C21.22 20.2188 22.9424 18.9782 22.442 16.3358C22.0395 14.208 20.7979 13.5628 19.1329 13.6353C19.9411 12.8829 20.2893 11.8653 19.7453 10.492ZM19.1245 16.9386C19.7066 18.9628 16.1701 19.7265 15.0641 20.0444L14.0341 16.455C15.1408 16.1383 18.5185 14.827 19.1245 16.9386ZM16.9116 12.092C17.4398 13.934 14.4839 14.548 13.5624 14.812L12.628 11.5567C13.5494 11.2927 16.3599 10.171 16.9116 12.092Z" fill="white"/>
<defs>
<linearGradient id="paint0_linear" x1="0" y1="0.948242" x2="0" y2="30.9482" gradientUnits="userSpaceOnUse">
<stop stop-color="#F9AA4B"/>
<stop offset="1" stop-color="#F7931A"/>
</linearGradient>
</defs>
</svg>
