<svg width="31" height="31" viewBox="0 0 31 31" fill="none" xmlns="http://www.w3.org/2000/svg">
<path d="M30.0345 15.9688C30.0345 24.2531 23.3111 30.9689 15.0173 30.9689C6.72345 30.9689 0 24.2531 0 15.9688C0 7.68456 6.72345 0.968872 15.0173 0.968872C23.3111 0.968872 30.0345 7.68456 30.0345 15.9688Z" fill="#BEBEBE" fill-opacity="0.2"/>
<path d="M26.8462 15.969C26.8462 22.494 21.5503 27.7843 15.0174 27.7843C8.48456 27.7843 3.18823 22.494 3.18823 15.969C3.18823 9.44349 8.48456 4.15356 15.0174 4.15356C21.5504 4.15356 26.8462 9.4434 26.8462 15.969Z" fill="#BEBEBE" fill-opacity="0.1"/>
<path d="M14.1396 19.9759L15.115 16.3073L17.4243 15.4645L17.9987 13.3085L17.9791 13.255L15.7059 14.0845L17.3437 7.92444H12.6988L10.5569 15.9635L8.76853 16.616L8.17761 18.8388L9.96459 18.1868L8.70221 22.9245H21.0643L21.8568 19.9759H14.1396Z" fill="white"/>
</svg>
