<svg width="31" height="31" viewBox="0 0 31 31" fill="none" xmlns="http://www.w3.org/2000/svg">
<ellipse cx="15.0173" cy="15.9792" rx="15.0173" ry="15" fill="white" fill-opacity="0.7"/>
<path d="M22.0734 24.8429C22.0564 24.8188 22.0379 24.7958 22.0181 24.774L20.7108 23.4773L19.7625 22.5577L18.7958 21.6013C18.4782 21.2887 18.1652 20.9714 17.8475 20.6817C17.5299 20.392 17.3412 20.1759 17.065 19.9552C16.5145 19.5132 15.841 19.2515 15.1362 19.2058C14.4706 19.1493 13.8026 19.2799 13.2074 19.5828C12.8827 19.7448 12.5859 19.9574 12.3282 20.2127L10.9978 21.5278L10.0449 22.4474L9.08745 23.3991L8.12536 24.3463L7.66503 24.8061C7.66503 24.8061 7.63281 24.8521 7.61439 24.8705H4.64526L5.72244 23.7992L6.45897 23.0635L7.46709 22.0657L8.38775 21.1461L9.36825 20.1713C9.66747 19.8771 9.96668 19.5736 10.2889 19.2839C10.6293 18.9287 10.9905 18.594 11.3707 18.2816C12.0717 17.7457 12.8882 17.3805 13.7552 17.2148C14.2094 17.1227 14.6734 17.0888 15.1362 17.1137C16.4281 17.1701 17.6622 17.6648 18.6347 18.5161C18.7314 18.6034 18.828 18.6908 18.9201 18.7827L20.2136 20.0518L21.1711 20.999L22.1286 21.9462L23.0861 22.8658L24.0482 23.8222L24.9688 24.7418L25.0287 24.7877H24.9596L22.0734 24.8429ZM4.79717 8.09696L5.74545 9.01657L6.72135 9.98215L7.66503 10.9018L8.88951 12.1156L10.4546 13.6652L11.0024 14.1985C11.4735 14.6331 12.0172 14.9817 12.609 15.2285C13.531 15.6181 14.5386 15.7615 15.5329 15.6447C16.5272 15.5278 17.474 15.1546 18.2802 14.5618C18.6547 14.2643 19.0084 13.9417 19.339 13.5962C19.6612 13.2881 19.9743 12.9663 20.2965 12.6536L21.254 11.7018L22.2069 10.7592L23.1644 9.83961L24.131 8.88322L24.9596 8.05558L25.0195 7.98661H22.101C22.0681 7.98684 22.0367 8.00006 22.0135 8.0234C21.8524 8.17513 21.6959 8.33146 21.5532 8.4832C21.2264 8.80046 20.9041 9.12232 20.5819 9.44418L19.6244 10.3868L18.6715 11.3064C18.2388 11.7386 17.8061 12.1708 17.3688 12.5984C17.1162 12.8467 16.8256 13.0531 16.508 13.21C15.9382 13.4995 15.3021 13.634 14.6638 13.6001C14.0254 13.5662 13.4072 13.3651 12.8714 13.0168C12.54 12.7813 12.2318 12.515 11.9507 12.2214C11.6285 11.9133 11.3155 11.5961 10.9978 11.3018L10.0403 10.3546L9.08745 9.4074L7.70646 8.02799C7.68956 8.00813 7.66832 7.99241 7.64438 7.98204C7.62043 7.97168 7.59443 7.96695 7.56836 7.96822H4.66828L4.79717 8.09696Z" fill="#242424"/>
</svg>
