<svg width="31" height="31" viewBox="0 0 31 31" fill="none" xmlns="http://www.w3.org/2000/svg">
<path d="M29.5345 15.9585C29.5345 23.9661 23.0355 30.4585 15.0173 30.4585C6.99905 30.4585 0.5 23.9661 0.5 15.9585C0.5 7.95091 6.99905 1.4585 15.0173 1.4585C23.0355 1.4585 29.5345 7.95091 29.5345 15.9585Z" fill="black" stroke="white"/>
<path d="M22.3197 12.7369C21.6724 12.2762 20.9802 11.785 20.303 11.2976C20.288 11.2861 20.273 11.2747 20.2543 11.2633C20.1795 11.2062 20.0934 11.1453 19.9887 11.111L19.9812 11.1072C18.1702 10.6617 16.3294 10.2047 14.5484 9.76304C12.932 9.36323 11.3193 8.96341 9.70296 8.5636C9.6618 8.55218 9.62064 8.54075 9.57574 8.52933C9.42982 8.48744 9.26145 8.44175 9.08185 8.4646C9.02947 8.47221 8.98457 8.49125 8.94341 8.51791L8.89851 8.55598C8.82742 8.62452 8.79 8.7121 8.7713 8.7616L8.76007 8.79206V8.96722L8.76755 8.99387C9.78902 11.9068 10.8367 14.8616 11.8469 17.7213C12.6252 19.9221 13.4334 22.203 14.2228 24.4419C14.2715 24.5942 14.4099 24.6933 14.582 24.7085H14.6195C14.7803 24.7085 14.9225 24.6285 14.9936 24.4991L17.957 20.1011C18.6791 19.0311 19.4012 17.9573 20.1234 16.8874C20.419 16.4495 20.7146 16.0078 21.0101 15.5699C21.4966 14.8464 21.9979 14.1001 22.4956 13.3728L22.5218 13.3347V13.289C22.533 13.1558 22.5367 12.8816 22.3197 12.7369ZM18.8475 14.34C18.1515 14.7093 17.4406 15.0901 16.726 15.4671C17.1413 15.0139 17.5604 14.557 17.9757 14.1039C18.4958 13.5327 19.0383 12.9425 19.5696 12.3637L19.5808 12.3523C19.6257 12.2914 19.6819 12.2343 19.7417 12.1734C19.7829 12.1315 19.8278 12.0896 19.8689 12.0401C20.1458 12.2343 20.4264 12.4323 20.6958 12.6265C20.8904 12.7674 21.0887 12.9082 21.2908 13.0491C20.4676 13.4756 19.6444 13.9135 18.8475 14.34ZM17.059 14.1572C16.5239 14.7474 15.9702 15.3528 15.4202 15.9506C14.3538 14.6332 13.265 13.2966 12.2098 12.0058C11.7309 11.4194 11.2482 10.8292 10.7693 10.2428L10.7656 10.239C10.6571 10.1134 10.5523 9.97628 10.4475 9.84681C10.3802 9.75923 10.3091 9.67546 10.238 9.58788C10.672 9.70212 11.1098 9.80873 11.5401 9.91154C11.918 10.0029 12.3109 10.0981 12.6963 10.1971C14.8664 10.734 17.0403 11.2709 19.2104 11.8078C18.4883 12.5922 17.7624 13.388 17.059 14.1572ZM15.177 21.5785C15.2181 21.1787 15.263 20.7675 15.3004 20.3638C15.3341 20.0402 15.3678 19.7089 15.4014 19.3929C15.4538 18.8864 15.51 18.361 15.5549 17.8469L15.5661 17.7555C15.6035 17.4281 15.6409 17.0892 15.6634 16.7503C15.7045 16.7274 15.7494 16.7046 15.7981 16.6855C15.8542 16.6589 15.9103 16.636 15.9664 16.6018C16.8307 16.141 17.6951 15.6803 18.5631 15.2234C19.4274 14.7664 20.3142 14.2943 21.1935 13.8259C20.3928 15.0063 19.5883 16.1981 18.8101 17.3595C18.1403 18.3533 17.4519 19.3776 16.7671 20.3867C16.4977 20.7903 16.2171 21.2015 15.9515 21.5975C15.6521 22.0392 15.3453 22.4924 15.046 22.9455C15.0834 22.4886 15.1283 22.0278 15.177 21.5785ZM9.96113 10.4865C9.91249 10.3494 9.86011 10.2085 9.81521 10.0753C10.8254 11.3166 11.8432 12.5655 12.8347 13.7764C13.3473 14.4047 13.8599 15.0292 14.3725 15.6613C14.4735 15.7793 14.5746 15.905 14.6718 16.0268C14.799 16.1829 14.9263 16.3467 15.0647 16.5028C15.0198 16.895 14.9824 17.291 14.9412 17.6718C14.915 17.9383 14.8888 18.2048 14.8589 18.4752V18.479C14.8477 18.6503 14.8252 18.8217 14.8065 18.9892C14.7803 19.2215 14.7205 19.747 14.7205 19.747L14.7167 19.7736C14.6494 20.5428 14.5671 21.3196 14.4885 22.0735C14.4548 22.3858 14.4249 22.7056 14.3912 23.0255C14.3725 22.9683 14.3501 22.9112 14.3313 22.8579C14.2752 22.7056 14.2191 22.5457 14.1667 22.3896L13.7664 21.2587C12.498 17.6679 11.2295 14.081 9.96113 10.4865Z" fill="white"/>
</svg>
