<svg width="31" height="30" viewBox="0 0 31 30" fill="none" xmlns="http://www.w3.org/2000/svg">
<path d="M29.5816 18.6287C27.5759 26.6644 19.4277 31.5548 11.3818 29.5509C3.33918 27.5475 -1.55687 19.4082 0.449791 11.373C2.45458 3.33634 10.6028 -1.55455 18.6463 0.448869C26.6917 2.45229 31.5873 10.5925 29.5816 18.6287Z" fill="url(#paint0_linear)"/>
<path d="M21.6342 12.8631C21.9332 10.8672 20.4118 9.79426 18.3314 9.07849L19.0062 6.37476L17.3586 5.96461L16.7016 8.59708C16.2684 8.48927 15.8236 8.38756 15.3815 8.28678L16.0432 5.63696L14.3965 5.22681L13.7212 7.92959C13.3626 7.84803 13.0107 7.76741 12.669 7.68256L12.6709 7.67413L10.3986 7.10741L9.96032 8.86521C9.96032 8.86521 11.1828 9.14505 11.157 9.16239C11.8243 9.3288 11.9449 9.76989 11.9247 10.1196L11.1561 13.1997C11.2021 13.2114 11.2616 13.2283 11.3273 13.2545C11.2724 13.2409 11.2138 13.2259 11.1532 13.2114L10.0758 17.5262C9.99411 17.7287 9.78716 18.0325 9.32069 17.9171C9.33712 17.9411 8.12308 17.6186 8.12308 17.6186L7.30511 19.5024L9.44927 20.0363C9.84817 20.1362 10.2391 20.2407 10.6239 20.3392L9.94202 23.0738L11.5878 23.484L12.2631 20.7784C12.7127 20.9002 13.1491 21.0127 13.5762 21.1187L12.9032 23.8116L14.5509 24.2218L15.2327 21.4923C18.0423 22.0234 20.1551 21.8091 21.0443 19.2709C21.7609 17.2272 21.0087 16.0483 19.5304 15.2795C20.607 15.0316 21.4179 14.3242 21.6342 12.8631ZM17.8696 18.1361C17.3605 20.1798 13.9155 19.0749 12.7986 18.7979L13.7033 15.175C14.8202 15.4534 18.4018 16.0047 17.8696 18.1361ZM18.3793 12.8336C17.9147 14.6926 15.0474 13.7481 14.1172 13.5166L14.9376 10.2307C15.8677 10.4622 18.8631 10.8944 18.3793 12.8336Z" fill="white"/>
<defs>
<linearGradient id="paint0_linear" x1="0" y1="0" x2="0" y2="30" gradientUnits="userSpaceOnUse">
<stop stop-color="#F9AA4B"/>
<stop offset="1" stop-color="#F7931A"/>
</linearGradient>
</defs>
</svg>
