<svg width="34" height="34" viewBox="0 0 34 34" fill="none" xmlns="http://www.w3.org/2000/svg">
<path d="M30.1862 24.7692C31.2555 23.855 31.9352 22.4977 31.9352 20.9839C31.9352 18.2376 29.7009 16.0033 26.9546 16.0033C24.2087 16.0033 21.9747 18.2369 21.974 20.9826C21.9734 18.2369 19.7393 16.0033 16.9934 16.0033C14.2471 16.0033 12.0128 18.2376 12.0128 20.9839C12.0128 22.4999 12.6944 23.8588 13.7663 24.7731C13.1201 25.1152 12.5331 25.5566 12.0256 26.0773C11.5089 25.5466 10.9143 25.1059 10.2666 24.7667C11.3342 23.8526 12.0128 22.4964 12.0128 20.9839C12.0128 18.2376 9.7785 16.0033 7.03221 16.0033C4.28591 16.0033 2.0516 18.2376 2.0516 20.9839C2.0516 22.4977 2.73134 23.8549 3.80061 24.7692C1.59373 25.9292 0.00622559 28.2648 0.00622559 31.0116V33.0038C0.00615919 33.5539 0.438862 33.9999 0.988972 33.9999C1.36729 33.9999 32.352 33.9999 32.9978 33.9999C33.5479 33.9999 33.9939 33.5539 33.9939 33.0038V31.0116C33.9939 28.2923 32.4175 25.9421 30.1862 24.7692ZM26.9545 17.9956C28.6024 17.9956 29.9429 19.3362 29.9429 20.9839C29.9429 22.6317 28.6023 23.9722 26.9545 23.9722C25.3067 23.9722 23.9662 22.6316 23.9662 20.9839C23.9662 19.3362 25.3068 17.9956 26.9545 17.9956ZM21.974 20.9862C21.9747 22.4978 22.6531 23.853 23.7202 24.7667C23.0724 25.1059 22.4778 25.5465 21.9611 26.0773C21.4537 25.5566 20.8668 25.1152 20.2205 24.7731C21.2919 23.8594 21.9733 22.5013 21.974 20.9862ZM16.9933 17.9956C18.6411 17.9956 19.9817 19.3362 19.9817 20.9839C19.9817 22.6317 18.6411 23.9722 16.9933 23.9722C15.3455 23.9722 14.005 22.6316 14.005 20.9839C14.0049 19.3362 15.3455 17.9956 16.9933 17.9956ZM7.03207 17.9956C8.67988 17.9956 10.0204 19.3362 10.0204 20.9839C10.0204 22.6317 8.67981 23.9722 7.03207 23.9722C5.38434 23.9722 4.04373 22.6316 4.04373 20.9839C4.04373 19.3362 5.38427 17.9956 7.03207 17.9956ZM10.0338 31.0116V32.0077H1.98507V31.0116C1.98507 28.2758 4.29634 25.9646 7.03207 25.9646C8.50702 25.9646 9.88814 26.6128 10.8298 27.7229C10.3135 28.705 10.0338 29.8243 10.0338 31.0116ZM21.9872 32.0077H12.0127V31.0116C12.0127 28.2287 14.247 25.9646 16.9933 25.9646C19.7396 25.9646 21.9872 28.2288 21.9872 31.0116V32.0077H21.9872ZM32.0149 32.0077H23.9662V31.0116C23.9662 29.8244 23.6731 28.7051 23.1568 27.7229C24.0985 26.6128 25.4796 25.9646 26.9546 25.9646C29.6904 25.9646 32.0149 28.2758 32.0149 31.0116V32.0077Z" fill="url(#paint0_linear)"/>
<path d="M23.3189 4.64156L19.4989 4.08647L17.7874 0.560104C17.4247 -0.187166 16.3574 -0.186236 15.9951 0.560104L14.2836 4.08647L10.4638 4.64156C9.64855 4.76003 9.3213 5.76516 9.91172 6.34064L12.6787 9.03792L12.0256 12.8466C11.8863 13.6584 12.7412 14.2804 13.4709 13.8967L16.8913 12.0985L20.3117 13.8967C21.04 14.2796 21.8967 13.6608 21.757 12.8466L21.1038 9.03792L23.871 6.34064C24.4607 5.76556 24.1347 4.7601 23.3189 4.64156ZM19.3381 7.97675C19.1033 8.20559 18.9962 8.53529 19.0516 8.85843L19.4522 11.1939L17.3548 10.0913C17.0647 9.93879 16.7179 9.93879 16.4278 10.0913L14.3304 11.1939L14.731 8.85843C14.7863 8.53529 14.6792 8.20559 14.4445 7.97675L12.7477 6.32271L15.0925 5.98204C15.4193 5.93456 15.7013 5.72824 15.8454 5.4312L16.8912 3.27638L17.937 5.4312C18.0812 5.72824 18.3632 5.93456 18.6899 5.98204L21.0349 6.32277L19.3381 7.97675Z" fill="url(#paint1_linear)"/>
<defs>
<linearGradient id="paint0_linear" x1="17.0001" y1="13.9916" x2="17.0001" y2="33.9999" gradientUnits="userSpaceOnUse">
<stop stop-color="#11F588"/>
<stop offset="1" stop-color="#39B169"/>
</linearGradient>
<linearGradient id="paint1_linear" x1="16.8913" y1="-1.56642" x2="16.8913" y2="14.0129" gradientUnits="userSpaceOnUse">
<stop stop-color="#11F588"/>
<stop offset="1" stop-color="#39B169"/>
</linearGradient>
</defs>
</svg>
