<svg width="69" height="69" viewBox="0 0 69 69" fill="none" xmlns="http://www.w3.org/2000/svg">
<path fill-rule="evenodd" clip-rule="evenodd" d="M21.5823 15.4945C12.7036 21.6656 9.46203 32.9249 13.0594 42.6148L11.3641 43.2442C7.48651 32.7996 10.9775 20.663 20.5502 14.0095C30.1229 7.35604 42.7152 8.31399 51.1534 15.5887L49.9726 16.9584C42.144 10.2093 30.461 9.32334 21.5823 15.4945ZM19.6829 52.1444C27.5115 58.8935 39.1945 59.7795 48.0732 53.6083C56.952 47.4372 60.1935 36.1779 56.5961 26.488L58.2914 25.8586C62.169 36.3032 58.678 48.4398 49.1053 55.0933C39.5326 61.7467 26.9404 60.7888 18.5021 53.5141L19.6829 52.1444Z" fill="url(#paint0_linear)"/>
<path d="M10.8063 36.7062C9.83932 26.0112 16.1551 15.6052 26.7394 11.8364C37.3237 8.06749 48.7949 12.1398 54.8051 21.0391M58.8493 32.3966C59.8163 43.0917 53.5005 53.4976 42.9162 57.2665C32.3319 61.0353 20.8607 56.963 14.8505 48.0637" stroke="#FF7E00" stroke-width="1.5"/>
<path d="M34.8278 31.844L26.4631 22.4954H21.5662V27.3923L31.1437 35.9615L28.8216 38.557L27.5553 37.2907L25.667 39.1794L26.5226 40.035L25.2392 41.3184L26.3087 42.3879L23.919 44.7775L23.4545 44.313H22.2446L21.5662 44.9914V46.2013L24.3836 49.0187H25.5934L26.2719 48.3402V47.1304L25.8073 46.6658L28.197 44.2762L29.2665 45.3457L30.5499 44.0623L31.4055 44.9179L33.2938 43.0296L32.0275 41.7633L34.8278 39.2581L37.6282 41.7633L36.3619 43.0296L38.2502 44.9179L39.1058 44.0623L40.3892 45.3457L41.4587 44.2762L43.8483 46.6658L43.3838 47.1304V48.3402L44.0622 49.0187H45.2721L48.0895 46.2013V44.9914L47.411 44.313H46.2012L45.7366 44.7775L43.347 42.3879L44.4165 41.3184L43.1331 40.035L43.9887 39.1794L42.1004 37.2911L40.8341 38.5574L38.512 35.962L48.0895 27.3923V22.4954H43.1925L34.8278 31.844ZM22.4218 27.0099V23.9559L31.7447 33.2788L32.3496 32.6739L23.0267 23.351H26.0807L34.2537 32.4857L31.7139 35.3241L22.4218 27.0099ZM25.4163 47.986L25.2392 48.1631H24.7378L22.4218 45.847V45.3457L22.5989 45.1686H23.1002L25.4163 47.4846V47.986ZM25.2024 46.0609L24.5239 45.3825L26.9136 42.9928L27.5921 43.6713L25.2024 46.0609ZM29.2665 44.1358L26.449 41.3184L27.1275 40.6399L29.945 43.4574L29.2665 44.1358ZM31.4055 43.7081L26.8768 39.1794L27.5553 38.5009L32.084 43.0296L31.4055 43.7081ZM35.4695 38.684L36.3564 37.8905L38.9287 40.4628L38.234 41.1575L35.4695 38.684ZM46.5554 45.1686H47.0568L47.2339 45.3457V45.847L44.9178 48.1631H44.4165L44.2394 47.986V47.4846L46.5554 45.1686ZM45.1317 45.3825L44.4533 46.0609L42.0636 43.6713L42.7421 42.9928L45.1317 45.3825ZM43.2067 41.3184L40.3892 44.1358L39.7107 43.4574L42.5282 40.6399L43.2067 41.3184ZM42.7789 39.1794L38.2502 43.7081L37.5717 43.0296L42.1004 38.5009L42.7789 39.1794ZM40.2283 39.1632L39.5336 39.8579L36.9951 37.3193L37.8746 36.5322L40.2283 39.1632ZM46.629 23.351L37.3061 32.6739L37.911 33.2788L47.2339 23.9559V27.0099L31.4217 41.1575L30.727 40.4628L37.2693 33.9205L36.6644 33.3156L30.1221 39.8579L29.4273 39.1632L43.575 23.351H46.629Z" fill="url(#paint1_linear)"/>
<path d="M35.953 51.5103V51.3495C35.953 50.7281 35.4492 50.2243 34.8278 50.2243C34.2063 50.2243 33.7026 50.7281 33.7026 51.3495V51.5103C33.7026 52.1317 34.2063 52.6355 34.8278 52.6355C35.4492 52.6355 35.953 52.1317 35.953 51.5103Z" fill="url(#paint2_linear)"/>
<path d="M39.6502 50.3047V50.1439C39.6502 49.5225 39.1464 49.0187 38.525 49.0187C37.9035 49.0187 37.3998 49.5225 37.3998 50.1439V50.3047C37.3998 50.9261 37.9035 51.4299 38.525 51.4299C39.1464 51.4299 39.6502 50.9261 39.6502 50.3047Z" fill="url(#paint3_linear)"/>
<path d="M32.2558 50.3047V50.1439C32.2558 49.5225 31.7521 49.0187 31.1306 49.0187C30.5092 49.0187 30.0054 49.5225 30.0054 50.1439V50.3047C30.0054 50.9261 30.5092 51.4299 31.1306 51.4299C31.7521 51.4299 32.2558 50.9261 32.2558 50.3047Z" fill="url(#paint4_linear)"/>
<path d="M32.7682 19.1058L33.8246 18.6529L32.9494 16.4679L31.893 16.9208L32.7682 19.1058Z" fill="url(#paint5_linear)"/>
<path d="M29.2377 19.6676L28.7998 20.7604L30.912 21.6657L31.3499 20.5729L29.2377 19.6676Z" fill="url(#paint6_linear)"/>
<path d="M40.418 19.6676L38.3058 20.5729L38.7436 21.6657L40.8559 20.7604L40.418 19.6676Z" fill="url(#paint7_linear)"/>
<path d="M36.8869 19.1052L37.7621 16.9203L36.7057 16.4673L35.8305 18.6523L36.8869 19.1052Z" fill="url(#paint8_linear)"/>
<path fill-rule="evenodd" clip-rule="evenodd" d="M34.8278 27.3177L37.8016 22.7035L34.8278 18.0893L31.8541 22.7035L34.8278 27.3177ZM34.8278 25.1854L36.4273 22.7035L34.8278 20.4129L33.2284 22.7035L34.8278 25.1854Z" fill="url(#paint9_linear)"/>
<defs>
<linearGradient id="paint0_linear" x1="17.3582" y1="9.41702" x2="49.1053" y2="55.0933" gradientUnits="userSpaceOnUse">
<stop stop-color="#FF7E00"/>
<stop offset="1" stop-color="#C65300"/>
</linearGradient>
<linearGradient id="paint1_linear" x1="34.8278" y1="19.5305" x2="34.8278" y2="49.0187" gradientUnits="userSpaceOnUse">
<stop stop-color="#FF7E00"/>
<stop offset="1" stop-color="#C65300"/>
</linearGradient>
<linearGradient id="paint2_linear" x1="34.8278" y1="48.6144" x2="34.8278" y2="52.6355" gradientUnits="userSpaceOnUse">
<stop stop-color="#FF7E00"/>
<stop offset="1" stop-color="#C65300"/>
</linearGradient>
<linearGradient id="paint3_linear" x1="34.8278" y1="48.6144" x2="34.8278" y2="52.6355" gradientUnits="userSpaceOnUse">
<stop stop-color="#FF7E00"/>
<stop offset="1" stop-color="#C65300"/>
</linearGradient>
<linearGradient id="paint4_linear" x1="34.8278" y1="48.6144" x2="34.8278" y2="52.6355" gradientUnits="userSpaceOnUse">
<stop stop-color="#FF7E00"/>
<stop offset="1" stop-color="#C65300"/>
</linearGradient>
<linearGradient id="paint5_linear" x1="34.8278" y1="15.2544" x2="34.8278" y2="27.3177" gradientUnits="userSpaceOnUse">
<stop stop-color="#FF7E00"/>
<stop offset="1" stop-color="#C65300"/>
</linearGradient>
<linearGradient id="paint6_linear" x1="34.8278" y1="15.2544" x2="34.8278" y2="27.3177" gradientUnits="userSpaceOnUse">
<stop stop-color="#FF7E00"/>
<stop offset="1" stop-color="#C65300"/>
</linearGradient>
<linearGradient id="paint7_linear" x1="34.8278" y1="15.2544" x2="34.8278" y2="27.3177" gradientUnits="userSpaceOnUse">
<stop stop-color="#FF7E00"/>
<stop offset="1" stop-color="#C65300"/>
</linearGradient>
<linearGradient id="paint8_linear" x1="34.8278" y1="15.2544" x2="34.8278" y2="27.3177" gradientUnits="userSpaceOnUse">
<stop stop-color="#FF7E00"/>
<stop offset="1" stop-color="#C65300"/>
</linearGradient>
<linearGradient id="paint9_linear" x1="34.8278" y1="15.2544" x2="34.8278" y2="27.3177" gradientUnits="userSpaceOnUse">
<stop stop-color="#FF7E00"/>
<stop offset="1" stop-color="#C65300"/>
</linearGradient>
</defs>
</svg>
