<svg width="17" height="16" viewBox="0 0 17 16" fill="none" xmlns="http://www.w3.org/2000/svg">
<path fill-rule="evenodd" clip-rule="evenodd" d="M16.0317 13.4375C15.9525 13.4375 15.874 13.4228 15.8009 13.3942C15.7277 13.3657 15.6612 13.3238 15.6052 13.2711C15.5492 13.2184 15.5048 13.1558 15.4745 13.0869C15.4442 13.018 15.4286 12.9441 15.4286 12.8696V3.17391C15.4286 3.02337 15.4922 2.879 15.6053 2.77256C15.7184 2.66611 15.8718 2.60631 16.0317 2.60631C16.1916 2.60631 16.345 2.66611 16.4581 2.77256C16.5712 2.879 16.6348 3.02337 16.6348 3.17391V12.8697C16.6348 13.0203 16.5713 13.1647 16.4582 13.2711C16.3451 13.3776 16.1917 13.4375 16.0317 13.4375ZM12.8871 10.9629C12.8079 10.9629 12.7294 10.9481 12.6562 10.9196C12.5831 10.891 12.5166 10.8492 12.4606 10.7964C12.4046 10.7437 12.3602 10.6811 12.3299 10.6122C12.2996 10.5433 12.284 10.4695 12.284 10.3949V5.608C12.284 5.45747 12.3476 5.3131 12.4607 5.20665C12.5738 5.10021 12.7272 5.04041 12.8871 5.04041C13.047 5.04041 13.2004 5.10021 13.3135 5.20665C13.4266 5.3131 13.4902 5.45747 13.4902 5.608V10.395C13.4902 10.4696 13.4746 10.5434 13.4443 10.6123C13.414 10.6812 13.3696 10.7438 13.3136 10.7966C13.2576 10.8493 13.1911 10.8912 13.1179 10.9197C13.0448 10.9483 12.9663 10.9629 12.8871 10.9629ZM9.91482 15.75C7.80403 15.75 6.57083 15.1237 5.39176 14.2896L3.06561 12.0583C3.06561 12.0583 0.265625 10.963 0.265625 10.5573V5.40516C0.265625 5.05594 2.81964 4.03538 3.06797 3.9421C3.02563 3.98416 3.06555 3.94472 3.06555 3.94472C3.09473 3.93269 3.0937 3.93241 3.06797 3.9421C3.36348 3.6486 5.52563 1.51903 6.29631 1.10494C7.46888 0.475033 8.75175 0.293595 9.05326 0.253158C9.35478 0.21272 9.82988 0.188439 10.0009 0.293783C10.2882 0.378564 10.3886 0.520033 10.3887 1.63253V14.8982C10.3887 15.5878 10.2163 15.75 9.91482 15.75ZM9.13943 1.4295C6.9539 1.63675 5.78398 2.96663 4.5733 4.10697L3.77603 4.89735C3.69398 4.91119 2.50909 5.48397 1.47173 5.97313V10.0299C2.36821 10.4161 3.88995 11.1404 3.75481 11.0847L4.70249 12.0177C5.90305 13.1484 7.00526 14.3166 9.13939 14.5736L9.13943 1.4295ZM3.75484 4.91834L3.77603 4.89735C3.77603 4.89735 3.78051 4.90191 3.75484 4.91834Z" fill="#FF7E00"/>
</svg>
